<?xml version="1.0" standalone="no"?>
<!DOCTYPE svg PUBLIC "-//W3C//DTD SVG 20010904//EN"
 "http://www.w3.org/TR/2001/REC-SVG-20010904/DTD/svg10.dtd">
<svg version="1.0" xmlns="http://www.w3.org/2000/svg"
 width="500.000000pt" height="500.000000pt" viewBox="0 0 500.000000 500.000000"
 preserveAspectRatio="xMidYMid meet">
<metadata>
Created by potrace 1.14, written by Peter Selinger 2001-2017
</metadata>
<g transform="translate(0.000000,500.000000) scale(0.100000,-0.100000)"
fill="#000000" stroke="none">
<path d="M500 3800 l0 -600 600 0 600 0 0 600 0 600 -600 0 -600 0 0 -600z
m900 250 l0 -150 -300 0 -300 0 0 150 0 150 300 0 300 0 0 -150z m0 -500 l0
-150 -300 0 -300 0 0 150 0 150 300 0 300 0 0 -150z"/>
<path d="M1900 3800 l0 -600 150 0 150 0 0 250 0 250 300 0 300 0 0 -250 0
-250 150 0 150 0 0 600 0 600 -600 0 -600 0 0 -600z m900 250 l0 -150 -300 0
-300 0 0 150 0 150 300 0 300 0 0 -150z"/>
<path d="M3300 3800 l0 -600 150 0 150 0 0 350 0 350 50 0 50 0 0 -50 0 -50
50 0 50 0 0 -50 0 -50 50 0 50 0 0 -50 0 -50 50 0 50 0 0 -50 0 -50 50 0 50 0
0 -50 0 -50 50 0 50 0 0 -50 0 -50 50 0 50 0 0 -50 0 -50 100 0 100 0 0 600 0
600 -150 0 -150 0 0 -350 0 -350 -50 0 -50 0 0 50 0 50 -50 0 -50 0 0 50 0 50
-50 0 -50 0 0 50 0 50 -50 0 -50 0 0 50 0 50 -50 0 -50 0 0 50 0 50 -50 0 -50
0 0 50 0 50 -50 0 -50 0 0 50 0 50 -100 0 -100 0 0 -600z"/>
<path d="M500 2750 l0 -350 400 0 400 0 0 -50 0 -50 -50 0 -50 0 0 -50 0 -50
-50 0 -50 0 0 -50 0 -50 -50 0 -50 0 0 -50 0 -50 -50 0 -50 0 0 -50 0 -50 150
0 150 0 0 50 0 50 50 0 50 0 0 50 0 50 50 0 50 0 0 50 0 50 50 0 50 0 0 50 0
50 50 0 50 0 0 50 0 50 50 0 50 0 0 350 0 350 -150 0 -150 0 0 -250 0 -250
-300 0 -300 0 0 250 0 250 -150 0 -150 0 0 -350z"/>
<path d="M1900 2500 l0 -600 150 0 150 0 0 250 0 250 300 0 300 0 0 -250 0
-250 150 0 150 0 0 600 0 600 -600 0 -600 0 0 -600z m900 250 l0 -150 -300 0
-300 0 0 150 0 150 300 0 300 0 0 -150z"/>
<path d="M3300 3000 l0 -100 400 0 400 0 0 -50 0 -50 -50 0 -50 0 0 -50 0 -50
-50 0 -50 0 0 -50 0 -50 -50 0 -50 0 0 -50 0 -50 -50 0 -50 0 0 -50 0 -50 -50
0 -50 0 0 -50 0 -50 -50 0 -50 0 0 -50 0 -50 -50 0 -50 0 0 -50 0 -50 -50 0
-50 0 0 -100 0 -100 600 0 600 0 0 100 0 100 -400 0 -400 0 0 50 0 50 50 0 50
0 0 50 0 50 50 0 50 0 0 50 0 50 50 0 50 0 0 50 0 50 50 0 50 0 0 50 0 50 50
0 50 0 0 50 0 50 50 0 50 0 0 50 0 50 50 0 50 0 0 50 0 50 50 0 50 0 0 100 0
100 -600 0 -600 0 0 -100z"/>
<path d="M500 1200 l0 -600 150 0 150 0 0 250 0 250 300 0 300 0 0 -250 0
-250 150 0 150 0 0 600 0 600 -600 0 -600 0 0 -600z m900 250 l0 -150 -300 0
-300 0 0 150 0 150 300 0 300 0 0 -150z"/>
<path d="M1900 1450 l0 -350 50 0 50 0 0 -50 0 -50 50 0 50 0 0 -50 0 -50 50
0 50 0 0 -50 0 -50 50 0 50 0 0 -50 0 -50 50 0 50 0 0 -50 0 -50 100 0 100 0
0 50 0 50 50 0 50 0 0 50 0 50 50 0 50 0 0 50 0 50 50 0 50 0 0 50 0 50 50 0
50 0 0 50 0 50 50 0 50 0 0 350 0 350 -150 0 -150 0 0 -300 0 -300 -50 0 -50
0 0 -50 0 -50 -50 0 -50 0 0 -50 0 -50 -100 0 -100 0 0 50 0 50 -50 0 -50 0 0
50 0 50 -50 0 -50 0 0 300 0 300 -150 0 -150 0 0 -350z"/>
<path d="M3300 1700 l0 -100 200 0 200 0 0 -400 0 -400 -200 0 -200 0 0 -100
0 -100 600 0 600 0 0 100 0 100 -250 0 -250 0 0 400 0 400 250 0 250 0 0 100
0 100 -600 0 -600 0 0 -100z"/>
</g>
</svg>
